<svg id="logo-quipux" xmlns="http://www.w3.org/2000/svg" width="157.937" height="28.086" viewBox="0 0 157.937 28.086">
  <path id="Trazado_148248" data-name="Trazado 148248" d="M296.549,328.4a11.431,11.431,0,0,0-11.96-12.83,11.39,11.39,0,0,0-.088,22.705l-1.56-2.506a9.1,9.1,0,1,1,5.023-.059l-1.56.329h0l1.223,2.089h.01l2.852,4.775a.653.653,0,0,0,.5.311h1.552a.6.6,0,0,0,.5-.948l-3.089-4.91a11.287,11.287,0,0,0,6.592-8.953" transform="translate(-274.079 -315.128)" fill="#1d1d34"/>
  <path id="Trazado_148249" data-name="Trazado 148249" d="M473.041,316.034a.633.633,0,0,1,.61-.654h1.231a.608.608,0,0,1,.608.608h0v13.345c0,3.643,2.261,6.5,6,6.5,3.761,0,6.063-2.788,6.063-6.432V315.99a.607.607,0,0,1,.6-.608h1.253a.621.621,0,0,1,.607.608v13.553a8.493,8.493,0,1,1-16.984,0V316.034Z" transform="translate(-440.246 -314.991)" fill="#1d1d34"/>
  <path id="Trazado_148250" data-name="Trazado 148250" d="M666.35,314.62h1.244a.611.611,0,0,1,.61.61v21.345a.611.611,0,0,1-.61.61H666.35a.612.612,0,0,1-.61-.61V315.23a.612.612,0,0,1,.61-.61" transform="translate(-601.248 -314.355)" fill="#1d1d34"/>
  <path id="Trazado_148251" data-name="Trazado 148251" d="M775.22,316.034a.654.654,0,0,1,.654-.654h7.194a7.261,7.261,0,1,1,.026,14.522h-5.423v7.547a.623.623,0,0,1-.623.621H775.83a.618.618,0,0,1-.62-.616v-21.42Zm7.64,11.425a4.972,4.972,0,0,0,4.953-4.967,4.8,4.8,0,0,0-4.953-4.643h-5.19v9.6h5.19Z" transform="translate(-692.64 -314.991)" fill="#1d1d34"/>
  <path id="Trazado_148252" data-name="Trazado 148252" d="M925.1,316.82a.61.61,0,0,1,.608-.61h1.246a.607.607,0,0,1,.608.6V330.15c0,3.644,2.268,6.484,6,6.484,3.77,0,6.063-2.78,6.063-6.419v-13.4a.607.607,0,0,1,.6-.61h1.251a.61.61,0,0,1,.608.61v13.525a8.493,8.493,0,1,1-16.986,0Z" transform="translate(-817.822 -315.685)" fill="#1d1d34"/>
  <path id="Trazado_148253" data-name="Trazado 148253" d="M1091.2,338.707a.361.361,0,0,1-.3-.155.374.374,0,0,1,.039-.479l8.844-8.61a.368.368,0,0,1,.507.531l-7.081,6.885,8.765-4.552a.385.385,0,0,1,.338,0l8.792,4.459-20.177-19.411a.358.358,0,0,1-.039-.479.383.383,0,0,1,.468-.118l10.8,5.474,10.8-5.6a.373.373,0,0,1,.429.6l-9.181,8.935a.367.367,0,1,1-.505-.531l7.4-7.21-8.765,4.552a.381.381,0,0,1-.337,0l-8.793-4.462,20.178,19.414a.358.358,0,0,1,.039.479.383.383,0,0,1-.468.118l-10.8-5.474-10.8,5.6a.308.308,0,0,1-.164.038" transform="translate(-956.183 -316.021)" fill="#1d1d34"/>
  <path id="Trazado_148254" data-name="Trazado 148254" d="M1154.563,376.88a1.064,1.064,0,1,1-1.063,1.066v0a1.065,1.065,0,0,1,1.063-1.064" transform="translate(-1008.616 -366.356)" fill="#00a6bb"/>
  <path id="Trazado_148255" data-name="Trazado 148255" d="M1221.383,313a1.063,1.063,0,1,1-1.063,1.063,1.063,1.063,0,0,1,1.063-1.063h0" transform="translate(-1064.512 -313)" fill="#00a6bb"/>
  <path id="Trazado_148256" data-name="Trazado 148256" d="M1086.563,313a1.063,1.063,0,1,1-1.062,1.063,1.063,1.063,0,0,1,1.063-1.063h0" transform="translate(-951.735 -313)" fill="#00a6bb"/>
  <path id="Trazado_148257" data-name="Trazado 148257" d="M1221.383,443a1.064,1.064,0,1,1-1.063,1.066v0a1.062,1.062,0,0,1,1.061-1.064h0" transform="translate(-1064.512 -421.584)" fill="#00a6bb"/>
  <path id="Trazado_148258" data-name="Trazado 148258" d="M1086.563,443a1.064,1.064,0,1,1-1.062,1.066v0a1.063,1.063,0,0,1,1.061-1.064h0" transform="translate(-951.735 -421.584)" fill="#00a6bb"/>
</svg>
